<svg xmlns="http://www.w3.org/2000/svg" width="256" height="256" viewBox="0 0 100 100"><rect width="100" height="100" rx="20" fill="#5ecb82"></rect><path d="M16.53 58.36L16.53 58.36Q16.35 58.44 15.98 58.53Q15.61 58.62 15.16 58.62L15.16 58.62Q13.57 58.62 13.57 57.29L13.57 57.29L13.57 34.46Q13.76 34.39 14.15 34.29Q14.54 34.20 14.94 34.20L14.94 34.20Q16.53 34.20 16.53 35.53L16.53 35.53L16.53 58.36ZM38.25 49.89L38.25 49.89Q38.25 51.96 37.66 53.63Q37.07 55.29 35.98 56.47Q34.89 57.66 33.33 58.29Q31.78 58.92 29.85 58.92L29.85 58.92Q27.93 58.92 26.38 58.29Q24.82 57.66 23.71 56.47Q22.60 55.29 22.01 53.63Q21.42 51.96 21.42 49.89L21.42 49.89Q21.42 47.82 22.03 46.15Q22.64 44.49 23.75 43.30Q24.86 42.12 26.41 41.49Q27.97 40.86 29.85 40.86L29.85 40.86Q31.74 40.86 33.29 41.49Q34.85 42.12 35.94 43.30Q37.03 44.49 37.64 46.15Q38.25 47.82 38.25 49.89ZM29.85 43.30L29.85 43.30Q27.34 43.30 25.89 45.04Q24.45 46.78 24.45 49.89L24.45 49.89Q24.45 53.03 25.88 54.75Q27.30 56.47 29.85 56.47L29.85 56.47Q32.41 56.47 33.81 54.74Q35.22 53.00 35.22 49.89L35.22 49.89Q35.22 46.78 33.79 45.04Q32.37 43.30 29.85 43.30ZM54.27 58.99L54.27 56.66Q53.64 57.18 52.55 57.55Q51.46 57.92 49.94 57.92L49.94 57.92Q48.32 57.92 46.87 57.46Q45.43 56.99 44.34 55.98Q43.25 54.96 42.60 53.33Q41.95 51.70 41.95 49.37L41.95 49.37Q41.95 47.26 42.58 45.67Q43.21 44.08 44.34 43.01Q45.47 41.93 47.02 41.40Q48.58 40.86 50.46 40.86L50.46 40.86Q52.16 40.86 53.59 41.29Q55.01 41.71 55.98 42.34L55.98 42.34Q56.53 42.71 56.88 43.17Q57.23 43.64 57.23 44.30L57.23 44.30L57.23 59.18Q57.23 61.03 56.62 62.30Q56.01 63.58 54.92 64.37Q53.83 65.17 52.35 65.54Q50.87 65.91 49.17 65.91L49.17 65.91Q47.28 65.91 45.97 65.52Q44.65 65.13 44.17 64.84L44.17 64.84Q43.06 64.21 43.06 63.25L43.06 63.25Q43.06 62.73 43.30 62.38Q43.54 62.02 43.91 61.84L43.91 61.84Q44.69 62.43 46.10 62.93Q47.50 63.43 49.17 63.43L49.17 63.43Q51.65 63.43 52.96 62.38Q54.27 61.32 54.27 58.99L54.27 58.99ZM50.28 55.48L50.28 55.48Q51.76 55.48 52.70 55.01Q53.64 54.55 54.27 53.96L54.27 53.96L54.27 44.34Q53.64 43.93 52.70 43.62Q51.76 43.30 50.46 43.30L50.46 43.30Q47.95 43.30 46.45 44.82Q44.95 46.34 44.95 49.33L44.95 49.33Q44.95 51.00 45.36 52.16Q45.76 53.33 46.48 54.07Q47.21 54.81 48.19 55.14Q49.17 55.48 50.28 55.48ZM65.85 42.53L65.85 58.36Q65.67 58.44 65.30 58.53Q64.93 58.62 64.49 58.62L64.49 58.62Q62.89 58.62 62.89 57.29L62.89 57.29L62.89 41.42Q63.08 41.34 63.47 41.25Q63.86 41.16 64.30 41.16L64.30 41.16Q65.85 41.16 65.85 42.53L65.85 42.53ZM62.45 35.94L62.45 35.94Q62.45 35.16 62.99 34.63Q63.52 34.09 64.37 34.09L64.37 34.09Q65.23 34.09 65.74 34.63Q66.26 35.16 66.26 35.94L66.26 35.94Q66.26 36.72 65.74 37.25Q65.23 37.79 64.37 37.79L64.37 37.79Q63.52 37.79 62.99 37.25Q62.45 36.72 62.45 35.94ZM83.47 47.30L83.47 47.30Q83.47 45.23 82.30 44.26Q81.14 43.30 79.17 43.30L79.17 43.30Q77.69 43.30 76.55 43.67Q75.40 44.04 74.59 44.52L74.59 44.52L74.59 58.36Q74.40 58.44 74.03 58.53Q73.66 58.62 73.22 58.62L73.22 58.62Q71.63 58.62 71.63 57.29L71.63 57.29L71.63 44.67Q71.63 43.89 71.94 43.40Q72.26 42.90 73.03 42.41L73.03 42.41Q73.99 41.82 75.59 41.34Q77.18 40.86 79.17 40.86L79.17 40.86Q82.54 40.86 84.48 42.38Q86.43 43.89 86.43 47.15L86.43 47.15L86.43 58.36Q86.24 58.44 85.85 58.53Q85.46 58.62 85.06 58.62L85.06 58.62Q83.47 58.62 83.47 57.29L83.47 57.29L83.47 47.30Z" fill="#fff"></path></svg>